<mxfile host="Electron" modified="2024-03-06T09:32:46.588Z" agent="Mozilla/5.0 (Windows NT 10.0; Win64; x64) AppleWebKit/537.36 (KHTML, like Gecko) draw.io/22.0.3 Chrome/114.0.5735.289 Electron/25.8.4 Safari/537.36" etag="CdtVQv2nM9aWbYIDQz4u" version="22.0.3" type="device">
  <diagram name="Page-1" id="42789a77-a242-8287-6e28-9cd8cfd52e62">
    <mxGraphModel dx="3158" dy="2030" grid="1" gridSize="10" guides="1" tooltips="1" connect="1" arrows="1" fold="1" page="1" pageScale="1" pageWidth="1100" pageHeight="850" background="none" math="0" shadow="0">
      <root>
        <mxCell id="0" />
        <mxCell id="1" parent="0" />
        <mxCell id="1ea317790d2ca983-1" value="Warrior" style="ellipse;whiteSpace=wrap;html=1;rounded=0;shadow=1;comic=0;labelBackgroundColor=none;strokeWidth=1;fontFamily=Verdana;fontSize=12;align=center;" parent="1" vertex="1">
          <mxGeometry x="330" y="-60" width="90" height="60" as="geometry" />
        </mxCell>
        <mxCell id="1ea317790d2ca983-2" value="&lt;span&gt;AA1&lt;/span&gt;" style="ellipse;whiteSpace=wrap;html=1;rounded=0;shadow=1;comic=0;labelBackgroundColor=none;strokeWidth=1;fontFamily=Verdana;fontSize=12;align=center;" parent="1" vertex="1">
          <mxGeometry x="-300" y="360" width="75" height="50" as="geometry" />
        </mxCell>
        <mxCell id="1ea317790d2ca983-3" value="&lt;span&gt;AA3&lt;/span&gt;" style="ellipse;whiteSpace=wrap;html=1;rounded=0;shadow=1;comic=0;labelBackgroundColor=none;strokeWidth=1;fontFamily=Verdana;fontSize=12;align=center;" parent="1" vertex="1">
          <mxGeometry x="-42.5" y="360" width="75" height="50" as="geometry" />
        </mxCell>
        <mxCell id="1ea317790d2ca983-9" value="AA2" style="ellipse;whiteSpace=wrap;html=1;rounded=0;shadow=1;comic=0;labelBackgroundColor=none;strokeWidth=1;fontFamily=Verdana;fontSize=12;align=center;" parent="1" vertex="1">
          <mxGeometry x="-162.5" y="360" width="75" height="50" as="geometry" />
        </mxCell>
        <mxCell id="gW06uHLfzCwnz44VdpSl-1" value="&lt;h1&gt;Ability&lt;/h1&gt;&lt;p&gt;ActiveAbilityï¼ˆAA)&lt;/p&gt;&lt;p&gt;PassiveAbility(PA)&lt;/p&gt;&lt;p&gt;UltimateAbility(UA)&lt;br&gt;&lt;/p&gt;" style="text;html=1;strokeColor=none;fillColor=none;spacing=5;spacingTop=-20;whiteSpace=wrap;overflow=hidden;rounded=0;" parent="1" vertex="1">
          <mxGeometry x="32.5" y="-280" width="190" height="120" as="geometry" />
        </mxCell>
        <mxCell id="gW06uHLfzCwnz44VdpSl-2" value="&lt;h1&gt;Post&lt;/h1&gt;&lt;p&gt;Warrior&lt;/p&gt;&lt;p&gt;Magic&lt;/p&gt;&lt;p&gt;Healer&lt;/p&gt;&lt;p&gt;Normal&lt;/p&gt;" style="text;html=1;strokeColor=none;fillColor=none;spacing=5;spacingTop=-20;whiteSpace=wrap;overflow=hidden;rounded=0;" parent="1" vertex="1">
          <mxGeometry x="330" y="-280" width="190" height="160" as="geometry" />
        </mxCell>
        <mxCell id="gW06uHLfzCwnz44VdpSl-6" value="" style="endArrow=classic;html=1;rounded=0;exitX=0.5;exitY=1;exitDx=0;exitDy=0;entryX=0.5;entryY=0;entryDx=0;entryDy=0;" parent="1" source="gW06uHLfzCwnz44VdpSl-10" target="1ea317790d2ca983-2" edge="1">
          <mxGeometry width="50" height="50" relative="1" as="geometry">
            <mxPoint x="90" y="150" as="sourcePoint" />
            <mxPoint x="140" y="100" as="targetPoint" />
          </mxGeometry>
        </mxCell>
        <mxCell id="gW06uHLfzCwnz44VdpSl-7" value="" style="endArrow=classic;html=1;rounded=0;exitX=0.5;exitY=1;exitDx=0;exitDy=0;entryX=0.5;entryY=0;entryDx=0;entryDy=0;" parent="1" source="gW06uHLfzCwnz44VdpSl-10" target="1ea317790d2ca983-9" edge="1">
          <mxGeometry width="50" height="50" relative="1" as="geometry">
            <mxPoint x="339.25" y="69.78999999999999" as="sourcePoint" />
            <mxPoint x="176.25" y="178.79" as="targetPoint" />
          </mxGeometry>
        </mxCell>
        <mxCell id="gW06uHLfzCwnz44VdpSl-8" value="" style="endArrow=classic;html=1;rounded=0;exitX=0.5;exitY=1;exitDx=0;exitDy=0;entryX=0.5;entryY=0;entryDx=0;entryDy=0;" parent="1" source="gW06uHLfzCwnz44VdpSl-10" target="1ea317790d2ca983-3" edge="1">
          <mxGeometry width="50" height="50" relative="1" as="geometry">
            <mxPoint x="357.5" y="60" as="sourcePoint" />
            <mxPoint x="300.5" y="160" as="targetPoint" />
          </mxGeometry>
        </mxCell>
        <mxCell id="gW06uHLfzCwnz44VdpSl-10" value="AA" style="ellipse;whiteSpace=wrap;html=1;rounded=0;shadow=1;comic=0;labelBackgroundColor=none;strokeWidth=1;fontFamily=Verdana;fontSize=12;align=center;" parent="1" vertex="1">
          <mxGeometry x="-80" y="150" width="90" height="60" as="geometry" />
        </mxCell>
        <mxCell id="gW06uHLfzCwnz44VdpSl-12" value="PA1" style="ellipse;whiteSpace=wrap;html=1;rounded=0;shadow=1;comic=0;labelBackgroundColor=none;strokeWidth=1;fontFamily=Verdana;fontSize=12;align=center;" parent="1" vertex="1">
          <mxGeometry x="680" y="360" width="75" height="50" as="geometry" />
        </mxCell>
        <mxCell id="gW06uHLfzCwnz44VdpSl-13" value="PA3" style="ellipse;whiteSpace=wrap;html=1;rounded=0;shadow=1;comic=0;labelBackgroundColor=none;strokeWidth=1;fontFamily=Verdana;fontSize=12;align=center;" parent="1" vertex="1">
          <mxGeometry x="910" y="360" width="75" height="50" as="geometry" />
        </mxCell>
        <mxCell id="gW06uHLfzCwnz44VdpSl-14" value="PA2" style="ellipse;whiteSpace=wrap;html=1;rounded=0;shadow=1;comic=0;labelBackgroundColor=none;strokeWidth=1;fontFamily=Verdana;fontSize=12;align=center;" parent="1" vertex="1">
          <mxGeometry x="785" y="360" width="75" height="50" as="geometry" />
        </mxCell>
        <mxCell id="gW06uHLfzCwnz44VdpSl-16" value="" style="endArrow=classic;html=1;rounded=0;exitX=0.5;exitY=1;exitDx=0;exitDy=0;entryX=0.5;entryY=0;entryDx=0;entryDy=0;" parent="1" source="gW06uHLfzCwnz44VdpSl-20" target="gW06uHLfzCwnz44VdpSl-12" edge="1">
          <mxGeometry width="50" height="50" relative="1" as="geometry">
            <mxPoint x="950" y="150" as="sourcePoint" />
            <mxPoint x="1000" y="100" as="targetPoint" />
          </mxGeometry>
        </mxCell>
        <mxCell id="gW06uHLfzCwnz44VdpSl-17" value="" style="endArrow=classic;html=1;rounded=0;exitX=0.5;exitY=1;exitDx=0;exitDy=0;entryX=0.5;entryY=0;entryDx=0;entryDy=0;" parent="1" source="gW06uHLfzCwnz44VdpSl-20" target="gW06uHLfzCwnz44VdpSl-14" edge="1">
          <mxGeometry width="50" height="50" relative="1" as="geometry">
            <mxPoint x="1199.25" y="69.78999999999999" as="sourcePoint" />
            <mxPoint x="1036.25" y="178.79" as="targetPoint" />
          </mxGeometry>
        </mxCell>
        <mxCell id="gW06uHLfzCwnz44VdpSl-18" value="" style="endArrow=classic;html=1;rounded=0;exitX=0.5;exitY=1;exitDx=0;exitDy=0;entryX=0.5;entryY=0;entryDx=0;entryDy=0;" parent="1" source="gW06uHLfzCwnz44VdpSl-20" target="gW06uHLfzCwnz44VdpSl-13" edge="1">
          <mxGeometry width="50" height="50" relative="1" as="geometry">
            <mxPoint x="1217.5" y="60" as="sourcePoint" />
            <mxPoint x="1160.5" y="160" as="targetPoint" />
          </mxGeometry>
        </mxCell>
        <mxCell id="gW06uHLfzCwnz44VdpSl-20" value="PA" style="ellipse;whiteSpace=wrap;html=1;rounded=0;shadow=1;comic=0;labelBackgroundColor=none;strokeWidth=1;fontFamily=Verdana;fontSize=12;align=center;" parent="1" vertex="1">
          <mxGeometry x="780" y="150" width="90" height="60" as="geometry" />
        </mxCell>
        <mxCell id="gW06uHLfzCwnz44VdpSl-21" value="UA1" style="ellipse;whiteSpace=wrap;html=1;rounded=0;shadow=1;comic=0;labelBackgroundColor=none;strokeWidth=1;fontFamily=Verdana;fontSize=12;align=center;" parent="1" vertex="1">
          <mxGeometry x="230" y="360" width="75" height="50" as="geometry" />
        </mxCell>
        <mxCell id="gW06uHLfzCwnz44VdpSl-22" value="UA3" style="ellipse;whiteSpace=wrap;html=1;rounded=0;shadow=1;comic=0;labelBackgroundColor=none;strokeWidth=1;fontFamily=Verdana;fontSize=12;align=center;" parent="1" vertex="1">
          <mxGeometry x="475" y="360" width="75" height="50" as="geometry" />
        </mxCell>
        <mxCell id="gW06uHLfzCwnz44VdpSl-23" value="UA2" style="ellipse;whiteSpace=wrap;html=1;rounded=0;shadow=1;comic=0;labelBackgroundColor=none;strokeWidth=1;fontFamily=Verdana;fontSize=12;align=center;" parent="1" vertex="1">
          <mxGeometry x="345" y="360" width="75" height="50" as="geometry" />
        </mxCell>
        <mxCell id="gW06uHLfzCwnz44VdpSl-24" value="" style="endArrow=classic;html=1;rounded=0;exitX=0.5;exitY=1;exitDx=0;exitDy=0;entryX=0.5;entryY=0;entryDx=0;entryDy=0;" parent="1" source="gW06uHLfzCwnz44VdpSl-27" target="gW06uHLfzCwnz44VdpSl-21" edge="1">
          <mxGeometry width="50" height="50" relative="1" as="geometry">
            <mxPoint x="566.25" y="150" as="sourcePoint" />
            <mxPoint x="616.25" y="100" as="targetPoint" />
          </mxGeometry>
        </mxCell>
        <mxCell id="gW06uHLfzCwnz44VdpSl-25" value="" style="endArrow=classic;html=1;rounded=0;exitX=0.5;exitY=1;exitDx=0;exitDy=0;entryX=0.5;entryY=0;entryDx=0;entryDy=0;" parent="1" source="gW06uHLfzCwnz44VdpSl-27" target="gW06uHLfzCwnz44VdpSl-23" edge="1">
          <mxGeometry width="50" height="50" relative="1" as="geometry">
            <mxPoint x="815.5" y="69.78999999999999" as="sourcePoint" />
            <mxPoint x="652.5" y="178.79" as="targetPoint" />
          </mxGeometry>
        </mxCell>
        <mxCell id="gW06uHLfzCwnz44VdpSl-26" value="" style="endArrow=classic;html=1;rounded=0;exitX=0.5;exitY=1;exitDx=0;exitDy=0;entryX=0.5;entryY=0;entryDx=0;entryDy=0;" parent="1" source="gW06uHLfzCwnz44VdpSl-27" target="gW06uHLfzCwnz44VdpSl-22" edge="1">
          <mxGeometry width="50" height="50" relative="1" as="geometry">
            <mxPoint x="833.75" y="60" as="sourcePoint" />
            <mxPoint x="776.75" y="160" as="targetPoint" />
          </mxGeometry>
        </mxCell>
        <mxCell id="gW06uHLfzCwnz44VdpSl-27" value="UA" style="ellipse;whiteSpace=wrap;html=1;rounded=0;shadow=1;comic=0;labelBackgroundColor=none;strokeWidth=1;fontFamily=Verdana;fontSize=12;align=center;" parent="1" vertex="1">
          <mxGeometry x="337.5" y="150" width="90" height="60" as="geometry" />
        </mxCell>
        <mxCell id="gW06uHLfzCwnz44VdpSl-30" value="" style="endArrow=classic;html=1;rounded=0;exitX=0.5;exitY=1;exitDx=0;exitDy=0;entryX=0.5;entryY=0;entryDx=0;entryDy=0;" parent="1" source="1ea317790d2ca983-1" target="gW06uHLfzCwnz44VdpSl-10" edge="1">
          <mxGeometry width="50" height="50" relative="1" as="geometry">
            <mxPoint x="70" y="150" as="sourcePoint" />
            <mxPoint x="120" y="100" as="targetPoint" />
          </mxGeometry>
        </mxCell>
        <mxCell id="gW06uHLfzCwnz44VdpSl-31" value="" style="endArrow=classic;html=1;rounded=0;exitX=0.5;exitY=1;exitDx=0;exitDy=0;entryX=0.5;entryY=0;entryDx=0;entryDy=0;" parent="1" source="1ea317790d2ca983-1" target="gW06uHLfzCwnz44VdpSl-27" edge="1">
          <mxGeometry width="50" height="50" relative="1" as="geometry">
            <mxPoint x="521.19" y="21" as="sourcePoint" />
            <mxPoint x="183.19" y="150" as="targetPoint" />
          </mxGeometry>
        </mxCell>
        <mxCell id="gW06uHLfzCwnz44VdpSl-34" value="" style="endArrow=classic;html=1;rounded=0;exitX=0.5;exitY=1;exitDx=0;exitDy=0;entryX=0.5;entryY=0;entryDx=0;entryDy=0;" parent="1" source="1ea317790d2ca983-1" target="gW06uHLfzCwnz44VdpSl-20" edge="1">
          <mxGeometry width="50" height="50" relative="1" as="geometry">
            <mxPoint x="666.25" y="-20" as="sourcePoint" />
            <mxPoint x="650.25" y="130" as="targetPoint" />
          </mxGeometry>
        </mxCell>
        <mxCell id="gW06uHLfzCwnz44VdpSl-36" value="Magic" style="ellipse;whiteSpace=wrap;html=1;rounded=0;shadow=1;comic=0;labelBackgroundColor=none;strokeWidth=1;fontFamily=Verdana;fontSize=12;align=center;" parent="1" vertex="1">
          <mxGeometry x="2530" y="-10" width="90" height="60" as="geometry" />
        </mxCell>
        <mxCell id="gW06uHLfzCwnz44VdpSl-37" value="&lt;span&gt;AA1&lt;/span&gt;" style="ellipse;whiteSpace=wrap;html=1;rounded=0;shadow=1;comic=0;labelBackgroundColor=none;strokeWidth=1;fontFamily=Verdana;fontSize=12;align=center;" parent="1" vertex="1">
          <mxGeometry x="1900" y="410" width="75" height="50" as="geometry" />
        </mxCell>
        <mxCell id="gW06uHLfzCwnz44VdpSl-38" value="&lt;span&gt;AA3&lt;/span&gt;" style="ellipse;whiteSpace=wrap;html=1;rounded=0;shadow=1;comic=0;labelBackgroundColor=none;strokeWidth=1;fontFamily=Verdana;fontSize=12;align=center;" parent="1" vertex="1">
          <mxGeometry x="2157.5" y="410" width="75" height="50" as="geometry" />
        </mxCell>
        <mxCell id="gW06uHLfzCwnz44VdpSl-39" value="AA2" style="ellipse;whiteSpace=wrap;html=1;rounded=0;shadow=1;comic=0;labelBackgroundColor=none;strokeWidth=1;fontFamily=Verdana;fontSize=12;align=center;" parent="1" vertex="1">
          <mxGeometry x="2037.5" y="410" width="75" height="50" as="geometry" />
        </mxCell>
        <mxCell id="gW06uHLfzCwnz44VdpSl-40" value="&lt;span&gt;AA4&lt;/span&gt;" style="ellipse;whiteSpace=wrap;html=1;rounded=0;shadow=1;comic=0;labelBackgroundColor=none;strokeWidth=1;fontFamily=Verdana;fontSize=12;align=center;" parent="1" vertex="1">
          <mxGeometry x="2267.5" y="410" width="75" height="50" as="geometry" />
        </mxCell>
        <mxCell id="gW06uHLfzCwnz44VdpSl-41" value="" style="endArrow=classic;html=1;rounded=0;exitX=0.5;exitY=1;exitDx=0;exitDy=0;entryX=0.5;entryY=0;entryDx=0;entryDy=0;" parent="1" source="gW06uHLfzCwnz44VdpSl-45" target="gW06uHLfzCwnz44VdpSl-37" edge="1">
          <mxGeometry width="50" height="50" relative="1" as="geometry">
            <mxPoint x="2290" y="200" as="sourcePoint" />
            <mxPoint x="2340" y="150" as="targetPoint" />
          </mxGeometry>
        </mxCell>
        <mxCell id="gW06uHLfzCwnz44VdpSl-42" value="" style="endArrow=classic;html=1;rounded=0;exitX=0.5;exitY=1;exitDx=0;exitDy=0;entryX=0.5;entryY=0;entryDx=0;entryDy=0;" parent="1" source="gW06uHLfzCwnz44VdpSl-45" target="gW06uHLfzCwnz44VdpSl-39" edge="1">
          <mxGeometry width="50" height="50" relative="1" as="geometry">
            <mxPoint x="2539.25" y="119.78999999999999" as="sourcePoint" />
            <mxPoint x="2376.25" y="228.79" as="targetPoint" />
          </mxGeometry>
        </mxCell>
        <mxCell id="gW06uHLfzCwnz44VdpSl-43" value="" style="endArrow=classic;html=1;rounded=0;exitX=0.5;exitY=1;exitDx=0;exitDy=0;entryX=0.5;entryY=0;entryDx=0;entryDy=0;" parent="1" source="gW06uHLfzCwnz44VdpSl-45" target="gW06uHLfzCwnz44VdpSl-38" edge="1">
          <mxGeometry width="50" height="50" relative="1" as="geometry">
            <mxPoint x="2557.5" y="110" as="sourcePoint" />
            <mxPoint x="2500.5" y="210" as="targetPoint" />
          </mxGeometry>
        </mxCell>
        <mxCell id="gW06uHLfzCwnz44VdpSl-44" value="" style="endArrow=classic;html=1;rounded=0;exitX=0.5;exitY=1;exitDx=0;exitDy=0;entryX=0.5;entryY=0;entryDx=0;entryDy=0;" parent="1" source="gW06uHLfzCwnz44VdpSl-45" target="gW06uHLfzCwnz44VdpSl-40" edge="1">
          <mxGeometry width="50" height="50" relative="1" as="geometry">
            <mxPoint x="2601.25" y="90" as="sourcePoint" />
            <mxPoint x="2664.25" y="190" as="targetPoint" />
          </mxGeometry>
        </mxCell>
        <mxCell id="gW06uHLfzCwnz44VdpSl-45" value="AA" style="ellipse;whiteSpace=wrap;html=1;rounded=0;shadow=1;comic=0;labelBackgroundColor=none;strokeWidth=1;fontFamily=Verdana;fontSize=12;align=center;" parent="1" vertex="1">
          <mxGeometry x="2120" y="200" width="90" height="60" as="geometry" />
        </mxCell>
        <mxCell id="gW06uHLfzCwnz44VdpSl-46" value="PA1" style="ellipse;whiteSpace=wrap;html=1;rounded=0;shadow=1;comic=0;labelBackgroundColor=none;strokeWidth=1;fontFamily=Verdana;fontSize=12;align=center;" parent="1" vertex="1">
          <mxGeometry x="2800" y="410" width="75" height="50" as="geometry" />
        </mxCell>
        <mxCell id="gW06uHLfzCwnz44VdpSl-47" value="PA3" style="ellipse;whiteSpace=wrap;html=1;rounded=0;shadow=1;comic=0;labelBackgroundColor=none;strokeWidth=1;fontFamily=Verdana;fontSize=12;align=center;" parent="1" vertex="1">
          <mxGeometry x="3030" y="410" width="75" height="50" as="geometry" />
        </mxCell>
        <mxCell id="gW06uHLfzCwnz44VdpSl-48" value="PA2" style="ellipse;whiteSpace=wrap;html=1;rounded=0;shadow=1;comic=0;labelBackgroundColor=none;strokeWidth=1;fontFamily=Verdana;fontSize=12;align=center;" parent="1" vertex="1">
          <mxGeometry x="2905" y="410" width="75" height="50" as="geometry" />
        </mxCell>
        <mxCell id="gW06uHLfzCwnz44VdpSl-49" value="PA4" style="ellipse;whiteSpace=wrap;html=1;rounded=0;shadow=1;comic=0;labelBackgroundColor=none;strokeWidth=1;fontFamily=Verdana;fontSize=12;align=center;" parent="1" vertex="1">
          <mxGeometry x="3170" y="410" width="75" height="50" as="geometry" />
        </mxCell>
        <mxCell id="gW06uHLfzCwnz44VdpSl-50" value="" style="endArrow=classic;html=1;rounded=0;exitX=0.5;exitY=1;exitDx=0;exitDy=0;entryX=0.5;entryY=0;entryDx=0;entryDy=0;" parent="1" source="gW06uHLfzCwnz44VdpSl-54" target="gW06uHLfzCwnz44VdpSl-46" edge="1">
          <mxGeometry width="50" height="50" relative="1" as="geometry">
            <mxPoint x="3150" y="200" as="sourcePoint" />
            <mxPoint x="3200" y="150" as="targetPoint" />
          </mxGeometry>
        </mxCell>
        <mxCell id="gW06uHLfzCwnz44VdpSl-51" value="" style="endArrow=classic;html=1;rounded=0;exitX=0.5;exitY=1;exitDx=0;exitDy=0;entryX=0.5;entryY=0;entryDx=0;entryDy=0;" parent="1" source="gW06uHLfzCwnz44VdpSl-54" target="gW06uHLfzCwnz44VdpSl-48" edge="1">
          <mxGeometry width="50" height="50" relative="1" as="geometry">
            <mxPoint x="3399.25" y="119.78999999999999" as="sourcePoint" />
            <mxPoint x="3236.25" y="228.79" as="targetPoint" />
          </mxGeometry>
        </mxCell>
        <mxCell id="gW06uHLfzCwnz44VdpSl-52" value="" style="endArrow=classic;html=1;rounded=0;exitX=0.5;exitY=1;exitDx=0;exitDy=0;entryX=0.5;entryY=0;entryDx=0;entryDy=0;" parent="1" source="gW06uHLfzCwnz44VdpSl-54" target="gW06uHLfzCwnz44VdpSl-47" edge="1">
          <mxGeometry width="50" height="50" relative="1" as="geometry">
            <mxPoint x="3417.5" y="110" as="sourcePoint" />
            <mxPoint x="3360.5" y="210" as="targetPoint" />
          </mxGeometry>
        </mxCell>
        <mxCell id="gW06uHLfzCwnz44VdpSl-53" value="" style="endArrow=classic;html=1;rounded=0;exitX=0.5;exitY=1;exitDx=0;exitDy=0;entryX=0.5;entryY=0;entryDx=0;entryDy=0;" parent="1" source="gW06uHLfzCwnz44VdpSl-54" target="gW06uHLfzCwnz44VdpSl-49" edge="1">
          <mxGeometry width="50" height="50" relative="1" as="geometry">
            <mxPoint x="3461.25" y="90" as="sourcePoint" />
            <mxPoint x="3524.25" y="190" as="targetPoint" />
          </mxGeometry>
        </mxCell>
        <mxCell id="gW06uHLfzCwnz44VdpSl-54" value="PA" style="ellipse;whiteSpace=wrap;html=1;rounded=0;shadow=1;comic=0;labelBackgroundColor=none;strokeWidth=1;fontFamily=Verdana;fontSize=12;align=center;" parent="1" vertex="1">
          <mxGeometry x="2980" y="200" width="90" height="60" as="geometry" />
        </mxCell>
        <mxCell id="gW06uHLfzCwnz44VdpSl-55" value="UA1" style="ellipse;whiteSpace=wrap;html=1;rounded=0;shadow=1;comic=0;labelBackgroundColor=none;strokeWidth=1;fontFamily=Verdana;fontSize=12;align=center;" parent="1" vertex="1">
          <mxGeometry x="2430" y="410" width="75" height="50" as="geometry" />
        </mxCell>
        <mxCell id="gW06uHLfzCwnz44VdpSl-56" value="UA3" style="ellipse;whiteSpace=wrap;html=1;rounded=0;shadow=1;comic=0;labelBackgroundColor=none;strokeWidth=1;fontFamily=Verdana;fontSize=12;align=center;" parent="1" vertex="1">
          <mxGeometry x="2675" y="410" width="75" height="50" as="geometry" />
        </mxCell>
        <mxCell id="gW06uHLfzCwnz44VdpSl-57" value="UA2" style="ellipse;whiteSpace=wrap;html=1;rounded=0;shadow=1;comic=0;labelBackgroundColor=none;strokeWidth=1;fontFamily=Verdana;fontSize=12;align=center;" parent="1" vertex="1">
          <mxGeometry x="2545" y="410" width="75" height="50" as="geometry" />
        </mxCell>
        <mxCell id="gW06uHLfzCwnz44VdpSl-58" value="" style="endArrow=classic;html=1;rounded=0;exitX=0.5;exitY=1;exitDx=0;exitDy=0;entryX=0.5;entryY=0;entryDx=0;entryDy=0;" parent="1" source="gW06uHLfzCwnz44VdpSl-61" target="gW06uHLfzCwnz44VdpSl-55" edge="1">
          <mxGeometry width="50" height="50" relative="1" as="geometry">
            <mxPoint x="2766.25" y="200" as="sourcePoint" />
            <mxPoint x="2816.25" y="150" as="targetPoint" />
          </mxGeometry>
        </mxCell>
        <mxCell id="gW06uHLfzCwnz44VdpSl-59" value="" style="endArrow=classic;html=1;rounded=0;exitX=0.5;exitY=1;exitDx=0;exitDy=0;entryX=0.5;entryY=0;entryDx=0;entryDy=0;" parent="1" source="gW06uHLfzCwnz44VdpSl-61" target="gW06uHLfzCwnz44VdpSl-57" edge="1">
          <mxGeometry width="50" height="50" relative="1" as="geometry">
            <mxPoint x="3015.5" y="119.78999999999999" as="sourcePoint" />
            <mxPoint x="2852.5" y="228.79" as="targetPoint" />
          </mxGeometry>
        </mxCell>
        <mxCell id="gW06uHLfzCwnz44VdpSl-60" value="" style="endArrow=classic;html=1;rounded=0;exitX=0.5;exitY=1;exitDx=0;exitDy=0;entryX=0.5;entryY=0;entryDx=0;entryDy=0;" parent="1" source="gW06uHLfzCwnz44VdpSl-61" target="gW06uHLfzCwnz44VdpSl-56" edge="1">
          <mxGeometry width="50" height="50" relative="1" as="geometry">
            <mxPoint x="3033.75" y="110" as="sourcePoint" />
            <mxPoint x="2976.75" y="210" as="targetPoint" />
          </mxGeometry>
        </mxCell>
        <mxCell id="gW06uHLfzCwnz44VdpSl-61" value="UA" style="ellipse;whiteSpace=wrap;html=1;rounded=0;shadow=1;comic=0;labelBackgroundColor=none;strokeWidth=1;fontFamily=Verdana;fontSize=12;align=center;" parent="1" vertex="1">
          <mxGeometry x="2537.5" y="200" width="90" height="60" as="geometry" />
        </mxCell>
        <mxCell id="gW06uHLfzCwnz44VdpSl-62" value="" style="endArrow=classic;html=1;rounded=0;exitX=0.5;exitY=1;exitDx=0;exitDy=0;entryX=0.5;entryY=0;entryDx=0;entryDy=0;" parent="1" source="gW06uHLfzCwnz44VdpSl-36" target="gW06uHLfzCwnz44VdpSl-45" edge="1">
          <mxGeometry width="50" height="50" relative="1" as="geometry">
            <mxPoint x="2270" y="200" as="sourcePoint" />
            <mxPoint x="2320" y="150" as="targetPoint" />
          </mxGeometry>
        </mxCell>
        <mxCell id="gW06uHLfzCwnz44VdpSl-63" value="" style="endArrow=classic;html=1;rounded=0;exitX=0.5;exitY=1;exitDx=0;exitDy=0;entryX=0.5;entryY=0;entryDx=0;entryDy=0;" parent="1" source="gW06uHLfzCwnz44VdpSl-36" target="gW06uHLfzCwnz44VdpSl-61" edge="1">
          <mxGeometry width="50" height="50" relative="1" as="geometry">
            <mxPoint x="2721.19" y="71" as="sourcePoint" />
            <mxPoint x="2383.19" y="200" as="targetPoint" />
          </mxGeometry>
        </mxCell>
        <mxCell id="gW06uHLfzCwnz44VdpSl-64" value="" style="endArrow=classic;html=1;rounded=0;exitX=0.5;exitY=1;exitDx=0;exitDy=0;entryX=0.5;entryY=0;entryDx=0;entryDy=0;" parent="1" source="gW06uHLfzCwnz44VdpSl-36" target="gW06uHLfzCwnz44VdpSl-54" edge="1">
          <mxGeometry width="50" height="50" relative="1" as="geometry">
            <mxPoint x="2866.25" y="30" as="sourcePoint" />
            <mxPoint x="2850.25" y="180" as="targetPoint" />
          </mxGeometry>
        </mxCell>
        <mxCell id="gW06uHLfzCwnz44VdpSl-65" value="Healer" style="ellipse;whiteSpace=wrap;html=1;rounded=0;shadow=1;comic=0;labelBackgroundColor=none;strokeWidth=1;fontFamily=Verdana;fontSize=12;align=center;" parent="1" vertex="1">
          <mxGeometry x="4470" y="20" width="90" height="60" as="geometry" />
        </mxCell>
        <mxCell id="gW06uHLfzCwnz44VdpSl-66" value="&lt;span&gt;AA1&lt;/span&gt;" style="ellipse;whiteSpace=wrap;html=1;rounded=0;shadow=1;comic=0;labelBackgroundColor=none;strokeWidth=1;fontFamily=Verdana;fontSize=12;align=center;" parent="1" vertex="1">
          <mxGeometry x="3840" y="440" width="75" height="50" as="geometry" />
        </mxCell>
        <mxCell id="gW06uHLfzCwnz44VdpSl-67" value="&lt;span&gt;AA3&lt;/span&gt;" style="ellipse;whiteSpace=wrap;html=1;rounded=0;shadow=1;comic=0;labelBackgroundColor=none;strokeWidth=1;fontFamily=Verdana;fontSize=12;align=center;" parent="1" vertex="1">
          <mxGeometry x="4097.5" y="440" width="75" height="50" as="geometry" />
        </mxCell>
        <mxCell id="gW06uHLfzCwnz44VdpSl-68" value="AA2" style="ellipse;whiteSpace=wrap;html=1;rounded=0;shadow=1;comic=0;labelBackgroundColor=none;strokeWidth=1;fontFamily=Verdana;fontSize=12;align=center;" parent="1" vertex="1">
          <mxGeometry x="3977.5" y="440" width="75" height="50" as="geometry" />
        </mxCell>
        <mxCell id="gW06uHLfzCwnz44VdpSl-69" value="&lt;span&gt;AA4&lt;/span&gt;" style="ellipse;whiteSpace=wrap;html=1;rounded=0;shadow=1;comic=0;labelBackgroundColor=none;strokeWidth=1;fontFamily=Verdana;fontSize=12;align=center;" parent="1" vertex="1">
          <mxGeometry x="4207.5" y="440" width="75" height="50" as="geometry" />
        </mxCell>
        <mxCell id="gW06uHLfzCwnz44VdpSl-70" value="" style="endArrow=classic;html=1;rounded=0;exitX=0.5;exitY=1;exitDx=0;exitDy=0;entryX=0.5;entryY=0;entryDx=0;entryDy=0;" parent="1" source="gW06uHLfzCwnz44VdpSl-74" target="gW06uHLfzCwnz44VdpSl-66" edge="1">
          <mxGeometry width="50" height="50" relative="1" as="geometry">
            <mxPoint x="4230" y="230" as="sourcePoint" />
            <mxPoint x="4280" y="180" as="targetPoint" />
          </mxGeometry>
        </mxCell>
        <mxCell id="gW06uHLfzCwnz44VdpSl-71" value="" style="endArrow=classic;html=1;rounded=0;exitX=0.5;exitY=1;exitDx=0;exitDy=0;entryX=0.5;entryY=0;entryDx=0;entryDy=0;" parent="1" source="gW06uHLfzCwnz44VdpSl-74" target="gW06uHLfzCwnz44VdpSl-68" edge="1">
          <mxGeometry width="50" height="50" relative="1" as="geometry">
            <mxPoint x="4479.25" y="149.79" as="sourcePoint" />
            <mxPoint x="4316.25" y="258.78999999999996" as="targetPoint" />
          </mxGeometry>
        </mxCell>
        <mxCell id="gW06uHLfzCwnz44VdpSl-72" value="" style="endArrow=classic;html=1;rounded=0;exitX=0.5;exitY=1;exitDx=0;exitDy=0;entryX=0.5;entryY=0;entryDx=0;entryDy=0;" parent="1" source="gW06uHLfzCwnz44VdpSl-74" target="gW06uHLfzCwnz44VdpSl-67" edge="1">
          <mxGeometry width="50" height="50" relative="1" as="geometry">
            <mxPoint x="4497.5" y="140" as="sourcePoint" />
            <mxPoint x="4440.5" y="240" as="targetPoint" />
          </mxGeometry>
        </mxCell>
        <mxCell id="gW06uHLfzCwnz44VdpSl-73" value="" style="endArrow=classic;html=1;rounded=0;exitX=0.5;exitY=1;exitDx=0;exitDy=0;entryX=0.5;entryY=0;entryDx=0;entryDy=0;" parent="1" source="gW06uHLfzCwnz44VdpSl-74" target="gW06uHLfzCwnz44VdpSl-69" edge="1">
          <mxGeometry width="50" height="50" relative="1" as="geometry">
            <mxPoint x="4541.25" y="120" as="sourcePoint" />
            <mxPoint x="4604.25" y="220" as="targetPoint" />
          </mxGeometry>
        </mxCell>
        <mxCell id="gW06uHLfzCwnz44VdpSl-74" value="AA" style="ellipse;whiteSpace=wrap;html=1;rounded=0;shadow=1;comic=0;labelBackgroundColor=none;strokeWidth=1;fontFamily=Verdana;fontSize=12;align=center;" parent="1" vertex="1">
          <mxGeometry x="4060" y="230" width="90" height="60" as="geometry" />
        </mxCell>
        <mxCell id="gW06uHLfzCwnz44VdpSl-75" value="PA1" style="ellipse;whiteSpace=wrap;html=1;rounded=0;shadow=1;comic=0;labelBackgroundColor=none;strokeWidth=1;fontFamily=Verdana;fontSize=12;align=center;" parent="1" vertex="1">
          <mxGeometry x="4740" y="440" width="75" height="50" as="geometry" />
        </mxCell>
        <mxCell id="gW06uHLfzCwnz44VdpSl-76" value="PA3" style="ellipse;whiteSpace=wrap;html=1;rounded=0;shadow=1;comic=0;labelBackgroundColor=none;strokeWidth=1;fontFamily=Verdana;fontSize=12;align=center;" parent="1" vertex="1">
          <mxGeometry x="4970" y="440" width="75" height="50" as="geometry" />
        </mxCell>
        <mxCell id="gW06uHLfzCwnz44VdpSl-77" value="PA2" style="ellipse;whiteSpace=wrap;html=1;rounded=0;shadow=1;comic=0;labelBackgroundColor=none;strokeWidth=1;fontFamily=Verdana;fontSize=12;align=center;" parent="1" vertex="1">
          <mxGeometry x="4845" y="440" width="75" height="50" as="geometry" />
        </mxCell>
        <mxCell id="gW06uHLfzCwnz44VdpSl-78" value="PA4" style="ellipse;whiteSpace=wrap;html=1;rounded=0;shadow=1;comic=0;labelBackgroundColor=none;strokeWidth=1;fontFamily=Verdana;fontSize=12;align=center;" parent="1" vertex="1">
          <mxGeometry x="5110" y="440" width="75" height="50" as="geometry" />
        </mxCell>
        <mxCell id="gW06uHLfzCwnz44VdpSl-79" value="" style="endArrow=classic;html=1;rounded=0;exitX=0.5;exitY=1;exitDx=0;exitDy=0;entryX=0.5;entryY=0;entryDx=0;entryDy=0;" parent="1" source="gW06uHLfzCwnz44VdpSl-83" target="gW06uHLfzCwnz44VdpSl-75" edge="1">
          <mxGeometry width="50" height="50" relative="1" as="geometry">
            <mxPoint x="5090" y="230" as="sourcePoint" />
            <mxPoint x="5140" y="180" as="targetPoint" />
          </mxGeometry>
        </mxCell>
        <mxCell id="gW06uHLfzCwnz44VdpSl-80" value="" style="endArrow=classic;html=1;rounded=0;exitX=0.5;exitY=1;exitDx=0;exitDy=0;entryX=0.5;entryY=0;entryDx=0;entryDy=0;" parent="1" source="gW06uHLfzCwnz44VdpSl-83" target="gW06uHLfzCwnz44VdpSl-77" edge="1">
          <mxGeometry width="50" height="50" relative="1" as="geometry">
            <mxPoint x="5339.25" y="149.79" as="sourcePoint" />
            <mxPoint x="5176.25" y="258.78999999999996" as="targetPoint" />
          </mxGeometry>
        </mxCell>
        <mxCell id="gW06uHLfzCwnz44VdpSl-81" value="" style="endArrow=classic;html=1;rounded=0;exitX=0.5;exitY=1;exitDx=0;exitDy=0;entryX=0.5;entryY=0;entryDx=0;entryDy=0;" parent="1" source="gW06uHLfzCwnz44VdpSl-83" target="gW06uHLfzCwnz44VdpSl-76" edge="1">
          <mxGeometry width="50" height="50" relative="1" as="geometry">
            <mxPoint x="5357.5" y="140" as="sourcePoint" />
            <mxPoint x="5300.5" y="240" as="targetPoint" />
          </mxGeometry>
        </mxCell>
        <mxCell id="gW06uHLfzCwnz44VdpSl-82" value="" style="endArrow=classic;html=1;rounded=0;exitX=0.5;exitY=1;exitDx=0;exitDy=0;entryX=0.5;entryY=0;entryDx=0;entryDy=0;" parent="1" source="gW06uHLfzCwnz44VdpSl-83" target="gW06uHLfzCwnz44VdpSl-78" edge="1">
          <mxGeometry width="50" height="50" relative="1" as="geometry">
            <mxPoint x="5401.25" y="120" as="sourcePoint" />
            <mxPoint x="5464.25" y="220" as="targetPoint" />
          </mxGeometry>
        </mxCell>
        <mxCell id="gW06uHLfzCwnz44VdpSl-83" value="PA" style="ellipse;whiteSpace=wrap;html=1;rounded=0;shadow=1;comic=0;labelBackgroundColor=none;strokeWidth=1;fontFamily=Verdana;fontSize=12;align=center;" parent="1" vertex="1">
          <mxGeometry x="4920" y="230" width="90" height="60" as="geometry" />
        </mxCell>
        <mxCell id="gW06uHLfzCwnz44VdpSl-84" value="UA1" style="ellipse;whiteSpace=wrap;html=1;rounded=0;shadow=1;comic=0;labelBackgroundColor=none;strokeWidth=1;fontFamily=Verdana;fontSize=12;align=center;" parent="1" vertex="1">
          <mxGeometry x="4370" y="440" width="75" height="50" as="geometry" />
        </mxCell>
        <mxCell id="gW06uHLfzCwnz44VdpSl-85" value="UA3" style="ellipse;whiteSpace=wrap;html=1;rounded=0;shadow=1;comic=0;labelBackgroundColor=none;strokeWidth=1;fontFamily=Verdana;fontSize=12;align=center;" parent="1" vertex="1">
          <mxGeometry x="4615" y="440" width="75" height="50" as="geometry" />
        </mxCell>
        <mxCell id="gW06uHLfzCwnz44VdpSl-86" value="UA2" style="ellipse;whiteSpace=wrap;html=1;rounded=0;shadow=1;comic=0;labelBackgroundColor=none;strokeWidth=1;fontFamily=Verdana;fontSize=12;align=center;" parent="1" vertex="1">
          <mxGeometry x="4485" y="440" width="75" height="50" as="geometry" />
        </mxCell>
        <mxCell id="gW06uHLfzCwnz44VdpSl-87" value="" style="endArrow=classic;html=1;rounded=0;exitX=0.5;exitY=1;exitDx=0;exitDy=0;entryX=0.5;entryY=0;entryDx=0;entryDy=0;" parent="1" source="gW06uHLfzCwnz44VdpSl-90" target="gW06uHLfzCwnz44VdpSl-84" edge="1">
          <mxGeometry width="50" height="50" relative="1" as="geometry">
            <mxPoint x="4706.25" y="230" as="sourcePoint" />
            <mxPoint x="4756.25" y="180" as="targetPoint" />
          </mxGeometry>
        </mxCell>
        <mxCell id="gW06uHLfzCwnz44VdpSl-88" value="" style="endArrow=classic;html=1;rounded=0;exitX=0.5;exitY=1;exitDx=0;exitDy=0;entryX=0.5;entryY=0;entryDx=0;entryDy=0;" parent="1" source="gW06uHLfzCwnz44VdpSl-90" target="gW06uHLfzCwnz44VdpSl-86" edge="1">
          <mxGeometry width="50" height="50" relative="1" as="geometry">
            <mxPoint x="4955.5" y="149.79" as="sourcePoint" />
            <mxPoint x="4792.5" y="258.78999999999996" as="targetPoint" />
          </mxGeometry>
        </mxCell>
        <mxCell id="gW06uHLfzCwnz44VdpSl-89" value="" style="endArrow=classic;html=1;rounded=0;exitX=0.5;exitY=1;exitDx=0;exitDy=0;entryX=0.5;entryY=0;entryDx=0;entryDy=0;" parent="1" source="gW06uHLfzCwnz44VdpSl-90" target="gW06uHLfzCwnz44VdpSl-85" edge="1">
          <mxGeometry width="50" height="50" relative="1" as="geometry">
            <mxPoint x="4973.75" y="140" as="sourcePoint" />
            <mxPoint x="4916.75" y="240" as="targetPoint" />
          </mxGeometry>
        </mxCell>
        <mxCell id="gW06uHLfzCwnz44VdpSl-90" value="UA" style="ellipse;whiteSpace=wrap;html=1;rounded=0;shadow=1;comic=0;labelBackgroundColor=none;strokeWidth=1;fontFamily=Verdana;fontSize=12;align=center;" parent="1" vertex="1">
          <mxGeometry x="4477.5" y="230" width="90" height="60" as="geometry" />
        </mxCell>
        <mxCell id="gW06uHLfzCwnz44VdpSl-91" value="" style="endArrow=classic;html=1;rounded=0;exitX=0.5;exitY=1;exitDx=0;exitDy=0;entryX=0.5;entryY=0;entryDx=0;entryDy=0;" parent="1" source="gW06uHLfzCwnz44VdpSl-65" target="gW06uHLfzCwnz44VdpSl-74" edge="1">
          <mxGeometry width="50" height="50" relative="1" as="geometry">
            <mxPoint x="4210" y="230" as="sourcePoint" />
            <mxPoint x="4260" y="180" as="targetPoint" />
          </mxGeometry>
        </mxCell>
        <mxCell id="gW06uHLfzCwnz44VdpSl-92" value="" style="endArrow=classic;html=1;rounded=0;exitX=0.5;exitY=1;exitDx=0;exitDy=0;entryX=0.5;entryY=0;entryDx=0;entryDy=0;" parent="1" source="gW06uHLfzCwnz44VdpSl-65" target="gW06uHLfzCwnz44VdpSl-90" edge="1">
          <mxGeometry width="50" height="50" relative="1" as="geometry">
            <mxPoint x="4661.1900000000005" y="101" as="sourcePoint" />
            <mxPoint x="4323.1900000000005" y="230" as="targetPoint" />
          </mxGeometry>
        </mxCell>
        <mxCell id="gW06uHLfzCwnz44VdpSl-93" value="" style="endArrow=classic;html=1;rounded=0;exitX=0.5;exitY=1;exitDx=0;exitDy=0;entryX=0.5;entryY=0;entryDx=0;entryDy=0;" parent="1" source="gW06uHLfzCwnz44VdpSl-65" target="gW06uHLfzCwnz44VdpSl-83" edge="1">
          <mxGeometry width="50" height="50" relative="1" as="geometry">
            <mxPoint x="4806.25" y="60" as="sourcePoint" />
            <mxPoint x="4790.25" y="210" as="targetPoint" />
          </mxGeometry>
        </mxCell>
        <mxCell id="gW06uHLfzCwnz44VdpSl-94" value="" style="rounded=0;whiteSpace=wrap;html=1;" parent="1" vertex="1">
          <mxGeometry x="-552.5" y="970" width="120" height="60" as="geometry" />
        </mxCell>
        <mxCell id="gW06uHLfzCwnz44VdpSl-95" value="&lt;span&gt;AA1_Level2&lt;/span&gt;" style="ellipse;whiteSpace=wrap;html=1;rounded=0;shadow=1;comic=0;labelBackgroundColor=none;strokeWidth=1;fontFamily=Verdana;fontSize=12;align=center;" parent="1" vertex="1">
          <mxGeometry x="-530" y="560" width="75" height="50" as="geometry" />
        </mxCell>
        <mxCell id="gW06uHLfzCwnz44VdpSl-96" value="AA1_Level3" style="ellipse;whiteSpace=wrap;html=1;rounded=0;shadow=1;comic=0;labelBackgroundColor=none;strokeWidth=1;fontFamily=Verdana;fontSize=12;align=center;" parent="1" vertex="1">
          <mxGeometry x="-392.5" y="560" width="75" height="50" as="geometry" />
        </mxCell>
        <mxCell id="gW06uHLfzCwnz44VdpSl-97" value="" style="endArrow=classic;html=1;rounded=0;exitX=0.5;exitY=1;exitDx=0;exitDy=0;entryX=0.5;entryY=0;entryDx=0;entryDy=0;" parent="1" target="gW06uHLfzCwnz44VdpSl-95" edge="1">
          <mxGeometry width="50" height="50" relative="1" as="geometry">
            <mxPoint x="-265" y="410" as="sourcePoint" />
            <mxPoint x="-90" y="300" as="targetPoint" />
          </mxGeometry>
        </mxCell>
        <mxCell id="gW06uHLfzCwnz44VdpSl-98" value="" style="endArrow=classic;html=1;rounded=0;exitX=0.5;exitY=1;exitDx=0;exitDy=0;entryX=0.5;entryY=0;entryDx=0;entryDy=0;" parent="1" target="gW06uHLfzCwnz44VdpSl-96" edge="1">
          <mxGeometry width="50" height="50" relative="1" as="geometry">
            <mxPoint x="-265" y="410" as="sourcePoint" />
            <mxPoint x="-53.75" y="378.78999999999996" as="targetPoint" />
          </mxGeometry>
        </mxCell>
        <mxCell id="gW06uHLfzCwnz44VdpSl-99" value="" style="endArrow=classic;html=1;rounded=0;exitX=0.5;exitY=1;exitDx=0;exitDy=0;entryX=0.5;entryY=0;entryDx=0;entryDy=0;" parent="1" target="gW06uHLfzCwnz44VdpSl-100" edge="1">
          <mxGeometry width="50" height="50" relative="1" as="geometry">
            <mxPoint x="-265" y="410" as="sourcePoint" />
            <mxPoint x="70.5" y="360" as="targetPoint" />
          </mxGeometry>
        </mxCell>
        <mxCell id="gW06uHLfzCwnz44VdpSl-100" value="AA1_Level4" style="ellipse;whiteSpace=wrap;html=1;rounded=0;shadow=1;comic=0;labelBackgroundColor=none;strokeWidth=1;fontFamily=Verdana;fontSize=12;align=center;" parent="1" vertex="1">
          <mxGeometry x="-272.5" y="560" width="75" height="50" as="geometry" />
        </mxCell>
        <mxCell id="gW06uHLfzCwnz44VdpSl-102" value="å¼€å§‹" style="rounded=1;whiteSpace=wrap;html=1;" parent="1" vertex="1">
          <mxGeometry x="-552.5" y="850" width="120" height="60" as="geometry" />
        </mxCell>
        <mxCell id="ZFn1Qh6X1O_iCy79mVQ9-3" value="AA1_Level1" style="ellipse;whiteSpace=wrap;html=1;rounded=0;shadow=1;comic=0;labelBackgroundColor=none;strokeWidth=1;fontFamily=Verdana;fontSize=12;align=center;" parent="1" vertex="1">
          <mxGeometry x="-660" y="560" width="75" height="50" as="geometry" />
        </mxCell>
        <mxCell id="ZFn1Qh6X1O_iCy79mVQ9-4" value="" style="endArrow=classic;html=1;rounded=0;exitX=0.5;exitY=1;exitDx=0;exitDy=0;entryX=0.5;entryY=0;entryDx=0;entryDy=0;" parent="1" source="1ea317790d2ca983-2" target="ZFn1Qh6X1O_iCy79mVQ9-3" edge="1">
          <mxGeometry width="50" height="50" relative="1" as="geometry">
            <mxPoint x="-372.5" y="410" as="sourcePoint" />
            <mxPoint x="-599.5" y="560" as="targetPoint" />
          </mxGeometry>
        </mxCell>
      </root>
    </mxGraphModel>
  </diagram>
</mxfile>
